<svg xmlns="http://www.w3.org/2000/svg" viewBox="0 0 92 28" fill="currentColor">
  <path d="M14.5 0C6.492 0 0 6.492 0 14.5v13h13.5C21.508 27.5 28 21.008 28 13V0H14.5zM22 13c0 4.962-4.038 9-9 9H6V14.5C6 9.538 10.038 5.5 15 5.5h7V13z"/>
  <path d="M33 1h6.5L50 16.5V1h6v26h-6.5L39 11.5V27h-6V1z"/>
  <path d="M61 1h13.5c4.694 0 8.5 3.806 8.5 8.5 0 2.797-1.352 5.279-3.437 6.831C82.033 17.651 84 20.451 84 23.5c0 4.142-3.358 7.5-7.5 7.5H61V1zm6 6v6h7.5c1.381 0 2.5-1.119 2.5-2.5S75.881 8 74.5 8H67zm0 12v6h9.5c1.381 0 2.5-1.119 2.5-2.5s-1.119-2.5-2.5-2.5H67z"/>
</svg>